<svg width="20" height="20" viewBox="0.2 0.2 20 20" fill="none" xmlns="http://www.w3.org/2000/svg">
<path d="M10.2039 3.95C10.8941 3.95237 11.4522 4.51373 11.45 5.20391L11.4373 8.95H15.2C15.8904 8.95 16.45 9.50964 16.45 10.2C16.45 10.8904 15.8904 11.45 15.2 11.45H11.4373L11.45 15.1961C11.4522 15.8863 10.8941 16.4476 10.2039 16.45C9.51373 16.4522 8.95237 15.8941 8.95 15.2039L8.93633 11.45H5.2C4.50964 11.45 3.95 10.8904 3.95 10.2C3.95 9.50964 4.50964 8.95 5.2 8.95H8.93633L8.95 5.19609C8.95237 4.50587 9.51373 3.94784 10.2039 3.95Z" fill="white"/>
</svg>
